<?xml version="1.0" encoding="utf-8"?>
<!-- Generator: Adobe Illustrator 16.0.0, SVG Export Plug-In . SVG Version: 6.00 Build 0)  -->
<!DOCTYPE svg PUBLIC "-//W3C//DTD SVG 1.1 Tiny//EN" "http://www.w3.org/Graphics/SVG/1.1/DTD/svg11-tiny.dtd">
<svg version="1.1" baseProfile="tiny" id="Layer_1" xmlns="http://www.w3.org/2000/svg" xmlns:xlink="http://www.w3.org/1999/xlink"
	 x="0px" y="0px" width="960px" height="560px" viewBox="0 0 960 560" xml:space="preserve">
<g>
	<circle fill="#399EA7" cx="222.83" cy="147.104" r="99.153"/>
	<circle fill="none" stroke="#FFFFFF" stroke-miterlimit="10" cx="222.83" cy="147.104" r="99.153"/>
	<circle fill="none" stroke="#FFFFFF" stroke-width="6" stroke-miterlimit="10" cx="221.833" cy="146.831" r="87.5"/>
	<path fill="#399EA7" d="M200.075,201.39v12.462c-3.075,26.147-11.24,32.486-11.24,32.486
		c-14.835,19.328-33.263,14.367-30.716-1.152c5.88-14.853,11.42,1.235,12.602,0.006s1.839-1.918,4.139-4.514
		c10.806-13.344,8.626-17.787,9.219-24.779c0-15.734,0-85.748,0-85.748c-2.856-24.452,10.322-40.465,13.95-43.711
		s11.631-10.476,26.413-9.858s32.32,11.612,32.551,32.365s-16.554,29.761-16.554,29.761c21.285,5.492,27.528,14.88,27.528,35.527
		c0,24.925-18.972,38.503-38.875,38.503c-12.462,0-21.762-4.092-28.645-11.346H200.075z M202.166,184.673
		c4.278,6.882,13.393,14.88,26.227,14.88c14.88,0,25.483-10.975,25.483-25.855c0-17.856-12.648-26.971-29.017-27.529
		c-1.674-0.186-3.348,0-5.022,0v-11.16c1.116,0,2.046-0.186,3.162-0.372c14.137-0.93,21.205-11.904,21.205-23.809
		c0-13.206-7.998-21.762-18.972-21.762c-15.066,0-23.065,13.02-23.065,38.689V184.673z"/>
	<path fill="none" stroke="#FFFFFF" stroke-width="6" stroke-miterlimit="10" d="M200.075,201.39v12.462
		c-3.075,26.147-11.24,32.486-11.24,32.486c-14.835,19.328-33.263,14.367-30.716-1.152c5.88-14.853,11.42,1.235,12.602,0.006
		s1.839-1.918,4.139-4.514c10.806-13.344,8.626-17.787,9.219-24.779c0-15.734,0-85.748,0-85.748
		c-2.856-24.452,10.322-40.465,13.95-43.711s11.631-10.476,26.413-9.858s32.32,11.612,32.551,32.365s-16.554,29.761-16.554,29.761
		c21.285,5.492,27.528,14.88,27.528,35.527c0,24.925-18.972,38.503-38.875,38.503c-12.462,0-21.762-4.092-28.645-11.346H200.075z
		 M202.166,184.673c4.278,6.882,13.393,14.88,26.227,14.88c14.88,0,25.483-10.975,25.483-25.855
		c0-17.856-12.648-26.971-29.017-27.529c-1.674-0.186-3.348,0-5.022,0v-11.16c1.116,0,2.046-0.186,3.162-0.372
		c14.137-0.93,21.205-11.904,21.205-23.809c0-13.206-7.998-21.762-18.972-21.762c-15.066,0-23.065,13.02-23.065,38.689V184.673z"/>
</g>
</svg>
